<svg xmlns="http://www.w3.org/2000/svg" viewBox="0 0 690 1010" width="680" height="1010" role="img">
  <title>AionSystem Certified Audit Sleeve — AI Sovereign Certified</title>
  <desc>Certified audit sleeve issued by AionSystem. Contains auditor badge, simulator badge, sovereign tier classification, SHA-256 sealed entry ID, and verification URL.</desc>

  <defs>
    <linearGradient id="bgDeep" x1="0%" y1="0%" x2="100%" y2="100%">
      <stop offset="0%" stop-color="#0d0d1a"/>
      <stop offset="35%" stop-color="#111120"/>
      <stop offset="65%" stop-color="#161625"/>
      <stop offset="100%" stop-color="#0a0a15"/>
    </linearGradient>

    <radialGradient id="ptLightRad" cx="20%" cy="12%" r="55%">
      <stop offset="0%" stop-color="#4af0ff" stop-opacity="0.09"/>
      <stop offset="60%" stop-color="#a855f7" stop-opacity="0.03"/>
      <stop offset="100%" stop-color="#000000" stop-opacity="0"/>
    </radialGradient>

    <radialGradient id="depthField" cx="50%" cy="50%" r="65%">
      <stop offset="0%" stop-color="#000000" stop-opacity="0"/>
      <stop offset="68%" stop-color="#000000" stop-opacity="0"/>
      <stop offset="100%" stop-color="#000000" stop-opacity="0.52"/>
    </radialGradient>

    <radialGradient id="cornerDark" cx="50%" cy="50%" r="75%">
      <stop offset="0%" stop-color="#000000" stop-opacity="0"/>
      <stop offset="100%" stop-color="#000000" stop-opacity="0.65"/>
    </radialGradient>

    <linearGradient id="borderRainbow" x1="0%" y1="0%" x2="100%" y2="100%">
      <stop offset="0%" stop-color="#00e5ff"/>
      <stop offset="20%" stop-color="#7c3aed"/>
      <stop offset="40%" stop-color="#f0a500"/>
      <stop offset="60%" stop-color="#00e5ff"/>
      <stop offset="80%" stop-color="#ec4899"/>
      <stop offset="100%" stop-color="#7c3aed"/>
    </linearGradient>

    <linearGradient id="innerBorder" x1="0%" y1="0%" x2="100%" y2="100%">
      <stop offset="0%" stop-color="#D4AF37" stop-opacity="0.5"/>
      <stop offset="50%" stop-color="#F5E08A" stop-opacity="0.25"/>
      <stop offset="100%" stop-color="#D4AF37" stop-opacity="0.5"/>
    </linearGradient>

    <linearGradient id="ribbonGold" x1="0%" y1="0%" x2="100%" y2="0%">
      <stop offset="0%" stop-color="#5a3e00"/>
      <stop offset="15%" stop-color="#9a7000"/>
      <stop offset="35%" stop-color="#D4AF37"/>
      <stop offset="50%" stop-color="#F5E08A"/>
      <stop offset="65%" stop-color="#D4AF37"/>
      <stop offset="85%" stop-color="#9a7000"/>
      <stop offset="100%" stop-color="#5a3e00"/>
    </linearGradient>

    <linearGradient id="ribbonSilver" x1="0%" y1="0%" x2="100%" y2="0%">
      <stop offset="0%" stop-color="#2a3040"/>
      <stop offset="20%" stop-color="#6b7a99"/>
      <stop offset="50%" stop-color="#c8d4e8"/>
      <stop offset="80%" stop-color="#6b7a99"/>
      <stop offset="100%" stop-color="#2a3040"/>
    </linearGradient>

    <linearGradient id="holoFoil" x1="0%" y1="0%" x2="100%" y2="100%">
      <stop offset="0%" stop-color="#ffffff" stop-opacity="0"/>
      <stop offset="15%" stop-color="#00e5ff" stop-opacity="0.07"/>
      <stop offset="30%" stop-color="#ffffff" stop-opacity="0"/>
      <stop offset="45%" stop-color="#a855f7" stop-opacity="0.06"/>
      <stop offset="60%" stop-color="#ffffff" stop-opacity="0"/>
      <stop offset="75%" stop-color="#f0a500" stop-opacity="0.05"/>
      <stop offset="90%" stop-color="#ffffff" stop-opacity="0"/>
      <stop offset="100%" stop-color="#ec4899" stop-opacity="0.04"/>
    </linearGradient>

    <linearGradient id="gloss" x1="0%" y1="0%" x2="30%" y2="100%">
      <stop offset="0%" stop-color="#ffffff" stop-opacity="0.07"/>
      <stop offset="40%" stop-color="#ffffff" stop-opacity="0.02"/>
      <stop offset="100%" stop-color="#ffffff" stop-opacity="0.04"/>
    </linearGradient>

    <linearGradient id="scanGrad" x1="0%" y1="0%" x2="0%" y2="100%">
      <stop offset="0%" stop-color="#ffffff" stop-opacity="0"/>
      <stop offset="45%" stop-color="#00e5ff" stop-opacity="0.04"/>
      <stop offset="50%" stop-color="#ffffff" stop-opacity="0.07"/>
      <stop offset="55%" stop-color="#00e5ff" stop-opacity="0.04"/>
      <stop offset="100%" stop-color="#ffffff" stop-opacity="0"/>
    </linearGradient>

    <linearGradient id="verifyBarBg" x1="0%" y1="0%" x2="100%" y2="100%">
      <stop offset="0%" stop-color="#0a0a14"/>
      <stop offset="100%" stop-color="#080810"/>
    </linearGradient>

    <linearGradient id="holoRing" x1="0%" y1="0%" x2="100%" y2="100%">
      <stop offset="0%" stop-color="#00e5ff"/>
      <stop offset="25%" stop-color="#a855f7"/>
      <stop offset="50%" stop-color="#f0a500"/>
      <stop offset="75%" stop-color="#ec4899"/>
      <stop offset="100%" stop-color="#00e5ff"/>
    </linearGradient>

    <radialGradient id="gemCenter" cx="50%" cy="35%" r="50%">
      <stop offset="0%" stop-color="#ffffff" stop-opacity="0.22"/>
      <stop offset="40%" stop-color="#00e5ff" stop-opacity="0.08"/>
      <stop offset="100%" stop-color="#000000" stop-opacity="0"/>
    </radialGradient>

    <pattern id="engrave" width="4" height="4" patternUnits="userSpaceOnUse" patternTransform="rotate(28)">
      <line x1="0" y1="0" x2="0" y2="4" stroke="#D4AF37" stroke-width="0.3" stroke-opacity="0.12"/>
    </pattern>

    <pattern id="hexMesh" width="38" height="33" patternUnits="userSpaceOnUse">
      <polygon points="19,1 37,9 37,23 19,31 1,23 1,9" fill="none" stroke="#4af0ff" stroke-width="0.4" stroke-opacity="0.055"/>
    </pattern>

    <pattern id="matrix" width="32" height="32" patternUnits="userSpaceOnUse">
      <text x="2" y="16" font-family="'Courier New',monospace" font-size="10" fill="#20ff50" opacity="0.04">0</text>
      <text x="12" y="26" font-family="'Courier New',monospace" font-size="8" fill="#20ff50" opacity="0.03">1</text>
      <text x="22" y="10" font-family="'Courier New',monospace" font-size="11" fill="#20ff50" opacity="0.035">;</text>
      <text x="6" y="6" font-family="'Courier New',monospace" font-size="9" fill="#20ff50" opacity="0.025">%</text>
      <text x="16" y="20" font-family="'Courier New',monospace" font-size="10" fill="#20ff50" opacity="0.03">/</text>
    </pattern>

    <pattern id="aionMark" width="272" height="272" patternUnits="userSpaceOnUse" patternTransform="rotate(-28)">
      <text x="0" y="40" font-family="'Courier New',monospace" font-size="35" font-weight="bold" fill="#D4AF37" opacity="0.055" letter-spacing="4">AI/ON</text>
      <text x="136" y="176" font-family="'Courier New',monospace" font-size="35" font-weight="bold" fill="#D4AF37" opacity="0.055" letter-spacing="4">AI/ON</text>
      <text x="68" y="272" font-family="'Courier New',monospace" font-size="35" font-weight="bold" fill="#D4AF37" opacity="0.04" letter-spacing="4">AI/ON</text>
    </pattern>

    <clipPath id="cardClip">
      <rect x="0" y="0" width="680" height="1000" rx="32"/>
    </clipPath>
  </defs>

  <!-- Background layers -->
  <rect x="4" y="8" width="672" height="990" rx="32" fill="#000000" fill-opacity="0.45"/>
  <rect width="680" height="1000" rx="32" fill="url(#bgDeep)"/>
  <rect width="680" height="1000" rx="32" fill="url(#aionMark)" clip-path="url(#cardClip)"/>
  <rect width="680" height="1000" rx="32" fill="url(#hexMesh)" clip-path="url(#cardClip)"/>
  <rect width="680" height="1000" rx="32" fill="url(#matrix)" clip-path="url(#cardClip)"/>
  <rect width="680" height="1000" rx="32" fill="url(#holoFoil)" clip-path="url(#cardClip)" opacity="0.32"/>
  <rect width="680" height="1000" rx="32" fill="url(#ptLightRad)" clip-path="url(#cardClip)"/>

  <!-- Corner polygons -->
  <polygon points="0,0 245,0 190,82 0,109" fill="#4af0ff" fill-opacity="0.018" stroke="#4af0ff" stroke-width="0.5" stroke-opacity="0.09" clip-path="url(#cardClip)"/>
  <polygon points="0,0 109,0 82,54 0,41" fill="#ffffff" fill-opacity="0.025" stroke="#ffffff" stroke-width="0.4" stroke-opacity="0.08" clip-path="url(#cardClip)"/>
  <polygon points="245,0 435,0 408,75 190,82" fill="#a855f7" fill-opacity="0.012" stroke="#a855f7" stroke-width="0.5" stroke-opacity="0.06" clip-path="url(#cardClip)"/>
  <polygon points="435,0 680,0 680,109 462,82" fill="#00e5ff" fill-opacity="0.014" stroke="#00e5ff" stroke-width="0.5" stroke-opacity="0.07" clip-path="url(#cardClip)"/>
  <polygon points="571,0 680,0 680,41 598,54" fill="#ffffff" fill-opacity="0.02" stroke="#ffffff" stroke-width="0.35" stroke-opacity="0.07" clip-path="url(#cardClip)"/>
  <polygon points="0,844 0,952 190,952 136,870" fill="#a855f7" fill-opacity="0.015" stroke="#a855f7" stroke-width="0.5" stroke-opacity="0.06" clip-path="url(#cardClip)"/>
  <polygon points="490,952 680,952 680,844 544,870" fill="#f0a500" fill-opacity="0.015" stroke="#f0a500" stroke-width="0.5" stroke-opacity="0.06" clip-path="url(#cardClip)"/>
  <polygon points="0,408 680,380 680,401 0,429" fill="#ffffff" fill-opacity="0.008" stroke="#4af0ff" stroke-width="0.3" stroke-opacity="0.05" clip-path="url(#cardClip)"/>

  <!-- Borders -->
  <rect x="2.5" y="2.5" width="675" height="995" rx="31" fill="none" stroke="url(#borderRainbow)" stroke-width="3"/>
  <rect x="9" y="9" width="662" height="982" rx="27" fill="none" stroke="url(#innerBorder)" stroke-width="1"/>
  <rect x="15" y="15" width="650" height="970" rx="23" fill="none" stroke="#4af0ff" stroke-width="0.3" stroke-opacity="0.12"/>

  <!-- Scan gradient overlay -->
  <g clip-path="url(#cardClip)">
    <rect x="0" y="0" width="680" height="163" fill="url(#scanGrad)"/>
  </g>

  <!-- CONDITIONAL RIBBON BLOCKS -->
  <!-- RIBBON_GOLD_START (remove this block if not applicable) -->
  <rect x="0" y="50" width="680" height="30" fill="url(#ribbonGold)" opacity="0.97"/>
  <text x="340" y="70.5" font-family="'Georgia','Times New Roman',serif" font-size="14.5" font-weight="bold" letter-spacing="5" fill="#0a0a14" text-anchor="middle" opacity="0.92">AI SOVEREIGN CERTIFIED</text>
  <!-- RIBBON_GOLD_END -->

  <!-- RIBBON_SILVER_START (remove this block if not applicable) -->
  <rect x="0" y="80" width="680" height="22" fill="url(#ribbonSilver)" opacity="0.92"/>
  <text x="340" y="95.5" font-family="'Georgia','Times New Roman',serif" font-size="12" font-weight="bold" letter-spacing="4" fill="#0a0a14" text-anchor="middle" opacity="0.88">AI CLOUD CERTIFIED</text>
  <!-- RIBBON_SILVER_END -->

  <!-- Corner marks -->
  <g stroke="#D4AF37" stroke-width="1.6" stroke-opacity="0.5" stroke-linecap="square" fill="none">
    <path d="M30,30 L30,68 M30,30 L68,30"/>
    <path d="M34,34 L34,62 M34,34 L62,34" stroke="#4af0ff" stroke-width="0.5" stroke-opacity="0.25"/>
    <path d="M650,30 L650,68 M650,30 L612,30"/>
    <path d="M646,34 L646,62 M646,34 L618,34" stroke="#4af0ff" stroke-width="0.5" stroke-opacity="0.25"/>
    <path d="M30,922 L30,884 M30,922 L68,922"/>
    <path d="M34,918 L34,888 M34,918 L62,918" stroke="#4af0ff" stroke-width="0.5" stroke-opacity="0.25"/>
    <path d="M650,922 L650,884 M650,922 L612,922"/>
    <path d="M646,918 L646,888 M646,918 L618,918" stroke="#4af0ff" stroke-width="0.5" stroke-opacity="0.25"/>
  </g>

  <!-- Badge slots -->
  <rect x="40" y="115" width="290" height="270" rx="8" fill="#000000" fill-opacity="0.15"/>
  <image x="40" y="115" width="290" height="270" href="{{SIMULATOR_BADGE_URL}}"/>

  <rect x="350" y="115" width="290" height="270" rx="8" fill="#000000" fill-opacity="0.15"/>
  <image x="350" y="115" width="290" height="270" href="{{AUDITOR_BADGE_URL}}"/>

  <!-- Badge enclosure ring -->
  <rect x="20" y="108" width="640" height="284" rx="16" fill="none" stroke="url(#holoRing)" stroke-width="1.8" stroke-opacity="0.3" stroke-dasharray="8,5"/>
  <rect x="28" y="116" width="624" height="268" rx="12" fill="none" stroke="#D4AF37" stroke-width="0.6" stroke-opacity="0.2"/>
  <rect x="36" y="124" width="608" height="252" rx="9" fill="none" stroke="#4af0ff" stroke-width="0.3" stroke-opacity="0.13"/>

  <!-- Badge separator ticks -->
  <g stroke="#D4AF37" stroke-opacity="0.42" stroke-width="1.1" fill="none">
    <line x1="340" y1="109" x2="340" y2="122"/>
    <line x1="340" y1="391" x2="340" y2="404"/>
    <line x1="21" y1="250" x2="34" y2="250"/>
    <line x1="646" y1="250" x2="659" y2="250"/>
    <line x1="57" y1="124" x2="57" y2="137"/>
    <line x1="623" y1="124" x2="623" y2="137"/>
    <line x1="57" y1="375" x2="57" y2="388"/>
    <line x1="623" y1="375" x2="623" y2="388"/>
  </g>

  <!-- Gem center glow -->
  <rect width="680" height="1000" rx="32" fill="url(#gemCenter)" clip-path="url(#cardClip)" opacity="0.4"/>

  <!-- Verification bar -->
  <rect x="50" y="428" width="580" height="380" rx="19" fill="url(#verifyBarBg)" stroke="#D4AF37" stroke-width="1.6" stroke-opacity="0.55"/>
  <rect x="50" y="428" width="580" height="380" rx="19" fill="url(#engrave)"/>
  <rect x="50" y="428" width="580" height="40" rx="19" fill="#D4AF37" fill-opacity="0.13"/>
  <rect x="50" y="452" width="580" height="18" fill="#D4AF37" fill-opacity="0.06"/>
  <line x1="76" y1="470" x2="604" y2="470" stroke="#D4AF37" stroke-width="0.8" stroke-opacity="0.4"/>
  <line x1="76" y1="471" x2="604" y2="471" stroke="#4af0ff" stroke-width="0.3" stroke-opacity="0.2"/>

  <text x="340" y="454" font-family="'Courier New',monospace" font-size="13" fill="#D4AF37" font-weight="bold" text-anchor="middle" letter-spacing="3">VERIFIED CERTIFICATION</text>

  <!-- Auditor line -->
  <text x="340" y="493" font-family="'Courier New',monospace" font-size="11.5" text-anchor="middle">
    <tspan fill="#DAA520">◈ </tspan>
    <tspan fill="#D4AF37">Certified by {{AUDITOR_BADGE_ID}} ({{AUDITOR_RANK}})</tspan>
  </text>

  <!-- Tier badge placeholder -->
  <rect x="180" y="502" width="320" height="76" rx="10" fill="#0d0d1a" fill-opacity="0.6" stroke="#D4AF37" stroke-width="1" stroke-opacity="0.35" stroke-dasharray="6,4"/>
  <rect x="184" y="506" width="312" height="68" rx="7" fill="none" stroke="#4af0ff" stroke-width="0.4" stroke-opacity="0.18" stroke-dasharray="4,6"/>
  <text x="340" y="535" font-family="'Courier New',monospace" font-size="7.5" fill="#D4AF37" fill-opacity="0.38" text-anchor="middle" letter-spacing="2.5">SOVEREIGN TIER</text>
  <g transform="translate(225,508) scale(1.15)">
    {{SOVEREIGN_TIER_BADGE_SVG}}
  </g>
  <text x="340" y="569" font-family="'Courier New',monospace" font-size="7" fill="#444" text-anchor="middle" letter-spacing="1.5">{{SOVEREIGN_TIER_LABEL}}</text>

  <!-- Audit details -->
  <circle cx="77" cy="591" r="3.5" fill="#4af0ff" opacity="0.7"/>
  <text x="90" y="595" font-family="'Courier New',monospace" font-size="11.5" fill="#888">Entry</text>
  <text x="175" y="595" font-family="'Courier New',monospace" font-size="11.5" fill="#F5E08A" font-weight="bold">{{ENTRY_ID}}</text>

  <circle cx="77" cy="617" r="3.5" fill="#a855f7" opacity="0.7"/>
  <text x="90" y="621" font-family="'Courier New',monospace" font-size="11.5" fill="#888">SHA-256</text>
  <text x="175" y="621" font-family="'Courier New',monospace" font-size="11" fill="#48CAE4">{{SHA256_FIRST16}}…</text>

  <circle cx="77" cy="643" r="3.5" fill="#f0a500" opacity="0.7"/>
  <text x="90" y="647" font-family="'Courier New',monospace" font-size="11.5" fill="#888">Verify</text>
  <text x="175" y="647" font-family="'Courier New',monospace" font-size="11.5" fill="#48CAE4">{{VERIFY_URL}}</text>

  <line x1="76" y1="661" x2="604" y2="661" stroke="#D4AF37" stroke-width="0.5" stroke-opacity="0.3"/>

  <!-- Signature block -->
  <line x1="160" y1="672" x2="340" y2="672" stroke="#D4AF37" stroke-width="0.4" stroke-opacity="0.35"/>
  <line x1="340" y1="672" x2="520" y2="672" stroke="#D4AF37" stroke-width="0.4" stroke-opacity="0.35"/>
  <text x="340" y="669" font-family="'Courier New',monospace" font-size="7.5" fill="#D4AF37" fill-opacity="0.45" text-anchor="middle" letter-spacing="2.5">CERTIFIED BY</text>
  <text x="340" y="696" font-family="'Georgia','Times New Roman',serif" font-size="20" font-weight="bold" font-style="italic" fill="#F5E08A" text-anchor="middle" letter-spacing="1.2" opacity="0.93">{{AUDITOR_NAME}}</text>
  <text x="340" y="711" font-family="'Courier New',monospace" font-size="8.5" fill="#D4AF37" fill-opacity="0.5" text-anchor="middle" letter-spacing="3">AI RELIABILITY ARCHITECT · AIONSYSTEM</text>

  <!-- Triple-time date block -->
  <line x1="76" y1="723" x2="604" y2="723" stroke="#D4AF37" stroke-width="0.4" stroke-opacity="0.22"/>
  <text x="340" y="737" font-family="'Courier New',monospace" font-size="9" fill="#888" text-anchor="middle" letter-spacing="1.5">ISSUED</text>
  <text x="340" y="751" font-family="'Courier New',monospace" font-size="10" fill="#DAA520" text-anchor="middle" letter-spacing="1">{{ISSUE_DATE_GREGORIAN}}</text>
  <text x="340" y="763" font-family="'Courier New',monospace" font-size="9" fill="#888" text-anchor="middle">{{ISSUE_DATE_HEBREW}} · {{ISSUE_DATE_DREAMSPELL}}</text>

  <!-- Ornamental dividers -->
  <text x="164" y="778" font-family="'Courier New',monospace" font-size="9.5" fill="#D4AF37" opacity="0.5">◆──────────────────</text>
  <text x="516" y="778" font-family="'Courier New',monospace" font-size="9.5" fill="#D4AF37" opacity="0.5" text-anchor="end">──────────────────◆</text>
  <text x="340" y="793" font-family="'Courier New',monospace" font-size="8.5" fill="#444" text-anchor="middle">Digital signature appended to STP ledger entry</text>

  <!-- Validity + scope bar -->
  <rect x="50" y="802" width="580" height="72" rx="10" fill="#060610" fill-opacity="0.7" stroke="#D4AF37" stroke-width="1" stroke-opacity="0.4"/>
  <rect x="54" y="806" width="572" height="64" rx="7" fill="none" stroke="#4af0ff" stroke-width="0.3" stroke-opacity="0.15"/>

  <text x="76" y="826" font-family="'Courier New',monospace" font-size="7.5" fill="#D4AF37" fill-opacity="0.5" letter-spacing="2">VALID THROUGH</text>
  <text x="76" y="843" font-family="'Courier New',monospace" font-size="11" fill="#F5E08A" font-weight="bold" letter-spacing="1">{{VALID_THROUGH}}</text>
  <text x="76" y="856" font-family="'Courier New',monospace" font-size="7.5" fill="#555" letter-spacing="1">90-DAY CERTIFICATION CYCLE</text>

  <line x1="340" y1="810" x2="340" y2="866" stroke="#D4AF37" stroke-width="0.5" stroke-opacity="0.3"/>

  <text x="356" y="826" font-family="'Courier New',monospace" font-size="7.5" fill="#D4AF37" fill-opacity="0.5" letter-spacing="2">AUDIT SCOPE</text>
  <text x="356" y="843" font-family="'Courier New',monospace" font-size="11" fill="#F5E08A" font-weight="bold" letter-spacing="1">{{AUDIT_SCOPE_CODE}}</text>
  <text x="356" y="856" font-family="'Courier New',monospace" font-size="7.5" fill="#555" letter-spacing="1">{{AUDIT_SCOPE_LABEL}}</text>

  <!-- QR code -->
  <rect x="556" y="884" width="74" height="74" rx="9" fill="#060610" stroke="url(#borderRainbow)" stroke-width="1.8"/>
  <image x="562" y="890" width="62" height="62" href="{{QR_CODE_URL}}"/>
  <text x="593" y="970" font-family="'Courier New',monospace" font-size="7.5" fill="#555" text-anchor="middle" letter-spacing="1.5">SCAN</text>

  <!-- Micro-text band -->
  <text x="-120.8" y="982" font-family="'Courier New',monospace" font-size="5.5" fill="#D4AF37" opacity="0.18" letter-spacing="1.8">AIONSYSTEM · SOVEREIGN TRACE PROTOCOL · CERTIFIED AI RELIABILITY ARCHITECTURE · AIONSYSTEM · SOVEREIGN TRACE PROTOCOL · CERTIFIED AI RELIABILITY ARCHITECTURE</text>
  <text x="-120.8" y="992" font-family="'Courier New',monospace" font-size="5.5" fill="#4af0ff" opacity="0.11" letter-spacing="1.8">AIONSYSTEM · SOVEREIGN TRACE PROTOCOL · CERTIFIED AI RELIABILITY ARCHITECTURE · AIONSYSTEM · SOVEREIGN TRACE PROTOCOL · CERTIFIED AI RELIABILITY ARCHITECTURE</text>

  <!-- Final depth / gloss overlays -->
  <rect width="680" height="1000" rx="32" fill="url(#depthField)" clip-path="url(#cardClip)" pointer-events="none"/>
  <rect width="680" height="1000" rx="32" fill="url(#cornerDark)" clip-path="url(#cardClip)" pointer-events="none" opacity="0.4"/>
  <rect width="680" height="1000" rx="32" fill="url(#gloss)" clip-path="url(#cardClip)" pointer-events="none"/>
  <ellipse cx="340" cy="0" rx="272" ry="82" fill="#ffffff" fill-opacity="0.04" clip-path="url(#cardClip)"/>
</svg>
